<?xml version="1.0" standalone="no"?>
<!DOCTYPE svg PUBLIC "-//W3C//DTD SVG 20010904//EN"
 "http://www.w3.org/TR/2001/REC-SVG-20010904/DTD/svg10.dtd">
<svg version="1.0" xmlns="http://www.w3.org/2000/svg"
 width="16.000000pt" height="16.000000pt" viewBox="0 0 16.000000 16.000000"
 preserveAspectRatio="xMidYMid meet">
<metadata>
Created by potrace 1.16, written by Peter Selinger 2001-2019
</metadata>
<g transform="translate(0.000000,16.000000) scale(0.100000,-0.100000)"
fill="#000000" stroke="none">
<path d="M0 80 l0 -80 80 0 80 0 0 80 0 80 -80 0 -80 0 0 -80z m125 34 c14
-15 25 -30 25 -34 0 -17 -51 -60 -70 -60 -19 0 -70 43 -70 60 0 17 51 60 70
60 12 0 32 -12 45 -26z"/>
<path d="M50 115 c-11 -13 -7 -15 30 -15 37 0 41 2 30 15 -16 19 -44 19 -60 0z"/>
<path d="M20 80 c0 -6 27 -10 60 -10 33 0 60 4 60 10 0 6 -27 10 -60 10 -33 0
-60 -4 -60 -10z"/>
<path d="M50 45 c7 -8 20 -15 30 -15 10 0 23 7 30 15 11 13 7 15 -30 15 -37 0
-41 -2 -30 -15z"/>
</g>
</svg>
