<svg width="64" height="64" viewBox="0 0 64 64" fill="none" xmlns="http://www.w3.org/2000/svg">
<rect width="64" height="64" fill="black"/>
<path fill-rule="evenodd" clip-rule="evenodd" d="M11.9427 39.1303C9.08217 38.2628 7 35.6053 7 32.4614C7 29.3275 9.06906 26.6768 11.9157 25.8008C14.7055 17.2102 22.7757 11 32.2964 11C41.804 11 49.865 17.1931 52.6656 25.7652C55.5736 26.6029 57.7008 29.2838 57.7008 32.4614C57.7008 35.6489 55.5604 38.3365 52.6386 39.1653C49.8135 47.6948 41.7736 53.8484 32.2964 53.8484C22.8063 53.8484 14.7574 47.678 11.9427 39.1303ZM49.0281 39.4291H15.9525C18.6632 45.8878 25.047 50.424 32.4903 50.424C39.9336 50.424 46.3175 45.8878 49.0281 39.4291ZM48.9984 25.4938C46.271 19.0725 39.9066 14.5693 32.4903 14.5693C25.0741 14.5693 18.7096 19.0725 15.9823 25.4938H48.9984ZM9.96496 32.4615C9.96496 30.2509 11.757 28.4588 13.9676 28.4588H50.7331C52.9438 28.4588 54.7358 30.2509 54.7358 32.4615C54.7358 34.6721 52.9438 36.4642 50.7331 36.4642H13.9676C11.757 36.4642 9.96496 34.6721 9.96496 32.4615Z" fill="white"/>
</svg>
