<svg width="64" height="64" viewBox="0 0 64 64" fill="none" xmlns="http://www.w3.org/2000/svg">
<rect width="64" height="64" rx="32" fill="black"/>
<path fill-rule="evenodd" clip-rule="evenodd" d="M8.586 39.7913C5.35316 38.8109 3 35.8075 3 32.2545C3 28.7127 5.33834 25.717 8.55544 24.7271C11.7084 15.0185 20.8289 8 31.5886 8C42.3335 8 51.4437 14.9991 54.6087 24.6868C57.8952 25.6336 60.2992 28.6633 60.2992 32.2545C60.2992 35.8568 57.8803 38.8942 54.5782 39.8309C51.3854 49.4705 42.2992 56.4249 31.5886 56.4249C20.8634 56.4249 11.767 49.4514 8.586 39.7913ZM50.4978 40.1289H13.1177C16.1811 47.4282 23.3957 52.5548 31.8078 52.5548C40.2198 52.5548 47.4344 47.4282 50.4978 40.1289ZM50.4642 24.38C47.3819 17.1231 40.1892 12.0338 31.8078 12.0338C23.4263 12.0338 16.2336 17.1231 13.1513 24.38H50.4642ZM6.35083 32.2546C6.35083 29.7563 8.37613 27.731 10.8745 27.731H52.4248C54.9231 27.731 56.9484 29.7563 56.9484 32.2546C56.9484 34.7529 54.9231 36.7782 52.4248 36.7782H10.8744C8.37612 36.7782 6.35083 34.7529 6.35083 32.2546Z" fill="white"/>
</svg>
