<svg width="230" height="56" viewBox="0 0 230 56" fill="none" xmlns="http://www.w3.org/2000/svg">
<path fill-rule="evenodd" clip-rule="evenodd" d="M135.225 46.2472C144.727 46.2472 152.431 38.5437 152.431 29.0409C152.431 19.5381 144.727 11.8346 135.225 11.8346C125.722 11.8346 118.018 19.5381 118.018 29.0409C118.018 38.5437 125.722 46.2472 135.225 46.2472ZM135.225 41.8541C142.301 41.8541 148.038 36.1175 148.038 29.0409C148.038 21.9644 142.301 16.2277 135.225 16.2277C128.148 16.2277 122.411 21.9644 122.411 29.0409C122.411 36.1175 128.148 41.8541 135.225 41.8541Z" fill="white"/>
<path d="M187.378 38.1515C188.364 38.8835 188.57 40.293 187.704 41.1646C184.587 44.3036 180.268 46.2472 175.495 46.2472C165.992 46.2472 158.288 38.5437 158.288 29.0409C158.288 19.5381 165.992 11.8346 175.495 11.8346C180.853 11.8346 185.64 14.2841 188.795 18.1245C189.556 19.0508 189.252 20.4015 188.246 21.0544C187.218 21.722 185.854 21.4004 185.035 20.4878C182.689 17.8728 179.284 16.2277 175.495 16.2277C168.418 16.2277 162.681 21.9644 162.681 29.0409C162.681 36.1175 168.418 41.8541 175.495 41.8541C178.849 41.8541 181.902 40.5653 184.186 38.4558C185.067 37.6418 186.414 37.4366 187.378 38.1515Z" fill="white"/>
<path d="M221.993 46.2472C220.707 46.2773 217.046 46.2472 214.466 46.2773C213.465 46.2612 212.614 46.2472 212.104 46.2472C202.601 46.2472 194.897 38.5436 194.897 29.0409C194.897 19.5383 202.601 11.8346 212.104 11.8346C221.226 11.8346 228.689 18.9337 229.273 27.9087C229.297 28.0392 229.31 28.1715 229.31 28.3087V35.9967C229.31 37.2097 228.326 38.1932 227.114 38.1932C225.901 38.1932 224.917 37.2097 224.917 35.9967V29.407L224.914 29.294L224.917 29.0409C224.917 21.9643 219.18 16.2277 212.104 16.2277C205.028 16.2277 199.291 21.9643 199.291 29.0409C199.291 36.1175 205.028 41.8541 212.104 41.8541H223.087C224.299 41.8541 225.283 42.8376 225.283 44.0507C225.283 45.2637 224.299 46.2472 223.087 46.2472H221.993Z" fill="white"/>
<path d="M98.4324 41.8541L98.6153 41.855C98.635 41.855 98.6548 41.8549 98.6746 41.8549C98.6943 41.8549 98.7141 41.8548 98.734 41.8548C98.8743 41.8545 99.0176 41.8541 99.1645 41.8541C101.26 41.8541 102.869 41.0995 104.078 40.1673C105.287 39.235 105.891 38.0595 105.891 36.6409C105.891 35.1817 105.246 34.1076 103.957 33.4185C102.668 32.6889 100.673 31.9796 97.9734 31.2905C95.5155 30.642 93.5009 29.9934 91.9294 29.3449C90.3983 28.6559 89.0686 27.6628 87.9404 26.3657C86.8525 25.0281 86.3085 23.2852 86.3085 21.137C86.3085 21.0637 86.3067 21.0362 86.3053 21.016C86.3034 20.9884 86.3025 20.9745 86.3085 20.8759V20.6051C86.4385 19.1058 86.9733 17.7533 87.8273 16.5162C88.8346 15.057 90.265 13.9018 92.1185 13.0506C93.9317 12.24 96.0446 11.8346 98.4219 11.8346C98.4864 11.8346 98.5508 11.8348 98.6151 11.8351C103.974 11.8351 108.76 14.2841 111.916 18.1245C112.677 19.0508 112.372 20.4015 111.367 21.0544C110.339 21.722 108.974 21.4004 108.156 20.4878C105.81 17.8729 102.405 16.2278 98.6153 16.2277H98.4324C98.3628 16.2278 98.3205 16.2277 98.2493 16.2277C96.1541 16.2277 94.7174 16.9823 93.5086 17.9146C92.6516 18.5755 92.0984 19.3586 91.849 20.264C91.7843 20.4988 91.7676 20.7433 91.7676 20.9869V21.353C91.7676 22.4474 92.151 23.1434 92.836 23.873C93.5613 24.562 94.4477 25.1295 95.4954 25.5753C96.5833 25.9807 98.0741 26.4468 99.9679 26.9737C102.345 27.6223 104.279 28.2708 105.77 28.9193C107.261 29.5273 108.53 30.4596 109.578 31.7161C110.666 32.9726 111.23 34.6142 111.27 36.6409C111.27 38.4649 110.766 40.1065 109.759 41.5657C108.752 43.0248 107.321 44.18 105.468 45.0312C103.655 45.8419 101.542 46.2472 99.1645 46.2472C99.0415 46.2472 98.9189 46.2466 98.7967 46.2454L98.6154 46.2472C93.2569 46.2472 88.6518 43.8542 85.4962 40.0138C84.735 39.0875 85.0394 37.7368 86.045 37.0839C87.0732 36.4164 88.4374 36.738 89.256 37.6505C91.5644 40.2237 94.7157 41.8026 98.4324 41.8541Z" fill="white"/>
<path fill-rule="evenodd" clip-rule="evenodd" d="M6.45982 36.7644C2.72126 35.6307 0 32.1575 0 28.0486C0 23.9528 2.70413 20.4885 6.42448 19.3437C10.0706 8.11636 20.6179 0 33.0608 0C45.4865 0 56.0217 8.09395 59.6819 19.2972C63.4825 20.392 66.2626 23.8957 66.2626 28.0486C66.2626 32.2145 63.4653 35.7269 59.6466 36.8102C55.9544 47.9577 45.4467 56 33.0608 56C20.6578 56 10.1384 47.9357 6.45982 36.7644ZM54.928 37.1549H11.7004C15.243 45.596 23.5862 51.5245 33.3142 51.5245C43.0421 51.5245 51.3853 45.596 54.928 37.1549ZM54.8891 18.9424C51.3246 10.5503 43.0067 4.66481 33.3142 4.66481C23.6216 4.66481 15.3037 10.5503 11.7392 18.9424H54.8891ZM3.875 28.0487C3.875 25.1596 6.21712 22.8175 9.10626 22.8175H57.1563C60.0455 22.8175 62.3876 25.1596 62.3876 28.0487C62.3876 30.9379 60.0455 33.28 57.1563 33.28H9.10625C6.21711 33.28 3.875 30.9379 3.875 28.0487Z" fill="white"/>
</svg>
